<?xml version="1.0" encoding="utf-8"?>
<svg xmlns="http://www.w3.org/2000/svg" style="display:none;">
  <symbol id="menu" viewBox="0 0 512 512">
    <circle cx="256" cy="256" r="252"/>
    <circle fill="white" cx="130" cy="256" r="50"/>
    <circle fill="white" cx="256" cy="256" r="50"/>
    <circle fill="white" cx="382" cy="256" r="50"/>    
  </symbol>
  <symbol id="edit-circle" viewBox="0 0 512 512">
    <path d="M 256,4 C 116.644,4 4,116.644 4,256 4,395.356 116.644,508 256,508 395.356,508 508,395.356 508,256 508,116.644 395.356,4 256,4 m 78.12,127.764 c 3.528,0 7.056,1.26 10.08,4.032 l 32.004,32.004 c 5.796,5.544 5.796,14.364 0,19.656 l -25.2,25.2 -51.66,-51.66 25.2,-25.2 c 2.52,-2.772 6.048,-4.032 9.576,-4.032 m -49.644,43.848 51.912,51.912 -152.712,152.712 h -51.912 v -51.912 z"/>
  </symbol>
  <symbol id="tick-circle" viewBox="0 0 512 512">
    <path d="M 256,4 A 252,252 0 0 1 508,256 252,252 0 0 1 256,508 252,252 0 0 1 4,256 252,252 0 0 1 256,4 M 230.8,369.4 407.2,193 371.668,157.468 230.8,298.084 152.932,220.468 117.4,256 Z"/>
  </symbol>
  <symbol id="cross-circle" viewBox="0 0 512 512">
    <path d="M 256,4 C 395.356,4 508,116.644 508,256 508,395.356 395.356,508 256,508 116.644,508 4,395.356 4,256 4,116.644 116.644,4 256,4 M 346.468,130 256,220.468 165.532,130 130,165.532 220.468,256 130,346.468 165.532,382 256,291.532 346.468,382 382,346.468 291.532,256 382,165.532 Z"/>
  </symbol>
  <symbol id="logo" viewBox="0 0 512 141">
    <path d="m 508,39.301 c -7.967,28.735 -20.451,56.64 -23.625,86.479 7.445,16.138 -16.939,14.369 -7.744,-2.116 2.721,-17.605 9.029,-34.337 14.105,-51.344 -6.829,12.514 -32.046,35.417 -36.045,9.346 -1.016,-12.052 -7.328,-39.594 4.543,-42.020 3.099,14.241 -7.672,44.541 12.188,45.966 11.731,-8.250 21.373,-21.142 25.806,-34.835 1.266,-5.087 5.775,-26.630 10.767,-11.467 z m -68.885,28.32 c -2.551,15.223 -16.924,30.549 -31.577,37.254 -18.583,9.686 -37.923,-10.246 -27.526,-28.603 7.226,-20.152 23.489,-41.544 46.231,-43.789 24.370,2.025 2.211,26.331 -11.410,27.809 -17.000,2.596 -33.237,10.805 -27.586,31.007 12.536,18.413 36.763,-0.687 45.085,-14.498 2.592,-2.819 3.847,-6.693 6.784,-9.180 z m -8.632,-23.777 c -7.611,-16.977 -40.267,12.415 -32.560,16.580 11.508,-2.993 25.103,-6.780 32.560,-16.580 z m -74.358,63.462 c -17.612,13.523 -1.889,-21.981 -1.209,-30.175 2.539,-9.622 11.342,-43.513 -6.436,-23.463 -10.688,14.260 -19.302,29.926 -28.244,45.312 -11.958,10.325 -7.422,-7.506 -6.965,-14.320 1.802,-15.617 2.449,-31.596 4.996,-46.937 15.651,-9.577 2.381,22.163 3.813,29.707 -0.631,9.403 -6.984,35.988 2.581,15.609 10.023,-14.887 17.631,-32.689 32.466,-43.445 17.521,2.086 3.477,31.528 3.537,44.394 -1.462,7.782 -2.989,15.556 -4.542,23.323 z M 306.282,42.483 c -7.029,12.96 -16.595,-13.209 -24.865,4.285 -9.985,13.148 -24.272,25.889 -26.173,42.965 2.316,6.837 -7.475,29.325 -9.085,12.415 3.276,-21.622 6.886,-43.275 11.281,-64.679 12.105,-6.553 4.244,13.228 3.632,19.902 -1.542,7.819 -4.539,18.859 2.630,4.516 9.225,-11.542 22.476,-36.434 39.960,-26.003 1.632,1.704 3.167,4.085 2.611,6.587 z M 229.792,103.670 c -13.409,15.84 -12.619,-19.532 -8.832,-27.734 0.461,-7.766 8.968,-35.179 -0.971,-16.728 -13.591,16.875 -25.043,38.883 -45.471,47.947 -13.693,-10.624 1.349,-35.425 5.177,-49.802 4.437,-6.757 8.802,-26.184 18.897,-21.380 -12.782,17.695 -22.805,39.307 -22.053,61.345 17.805,-4.233 27.745,-26.471 39.431,-40.104 6.001,-4.667 13.579,-34.612 18.111,-17.744 -2.774,18.757 -8.466,37.587 -7.320,56.632 0.578,2.683 1.912,5.091 3.027,7.570 z M 160.162,74.893 c -6.308,19.853 -28.633,37.288 -50.056,31.007 -17.601,-12.604 -0.805,-36.812 7.003,-51.012 2.388,-6.621 19.921,-23.860 20.783,-12.861 -13.466,13.780 -27.348,30.844 -27.798,50.974 12.128,17.385 41.253,-2.271 42.784,-19.763 1.576,-11.255 -29.295,-23.890 -6.349,-26.815 3.530,4.550 16.539,17.680 13.628,28.471 z M 109.108,13.706 C 98.748,22.452 71.517,8.857 63.947,22.867 59.029,49.766 55.575,77.361 47.279,103.368 31.390,108.606 48.307,81.110 46.905,72.462 47.695,56.721 60.515,29.221 52.752,20.482 37.380,17.663 13.656,34.648 4,20.671 18.256,14.057 38.155,17.058 54.573,13.415 57.816,12.171 60.844,-2.919 65.031,9.163 71.056,17.160 105.332,-2.568 109.104,13.706 Z"/>
  </symbol>
  <symbol id="list" viewBox="0 0 24 24">
    <path d="M9,5V9H21V5M9,19H21V15H9M9,14H21V10H9M4,9H8V5H4M4,19H8V15H4M4,14H8V10H4V14Z"/>
  </symbol>  
  <symbol id="trophy" viewBox="0 0 24 24">    
    <path d="M7,2V4H2V11C2,12 3,13 4,13H7.2C7.6,14.9 8.6,16.6 11,16.9V19C8,19.2 8,20.3 8,21.6V22H16V21.7C16,20.4 16,19.3 13,19.1V17C15.5,16.7 16.5,15 16.8,13.1H20C21,13.1 22,12.1 22,11.1V4H17V2H7M9,4H15V12A3,3 0 0,1 12,15C10,15 9,13.66 9,12V4M4,6H7V8L7,11H4V6M17,6H20V11H17V6Z"/>
  </symbol>
  <symbol id="info" viewBox="0 0 24 24">  
    <path d="M11,9H13V7H11M12,20C7.59,20 4,16.41 4,12C4,7.59 7.59,4 12,4C16.41,4 20,7.59 20,12C20,16.41 16.41,20 12,20M12,2A10,10 0 0,0 2,12A10,10 0 0,0 12,22A10,10 0 0,0 22,12A10,10 0 0,0 12,2M11,17H13V11H11V17Z"/>   
  </symbol>  
  <symbol id="refresh" viewBox="0 0 24 24">
    <path d="M17.65,6.35C16.2,4.9 14.21,4 12,4A8,8 0 0,0 4,12A8,8 0 0,0 12,20C15.73,20 18.84,17.45 19.73,14H17.65C16.83,16.33 14.61,18 12,18A6,6 0 0,1 6,12A6,6 0 0,1 12,6C13.66,6 15.14,6.69 16.22,7.78L13,11H20V4L17.65,6.35Z"/>
  </symbol> 
  <symbol id="account" viewBox="0 0 24 24">
    <path d="M12,4A4,4 0 0,1 16,8A4,4 0 0,1 12,12A4,4 0 0,1 8,8A4,4 0 0,1 12,4M12,14C16.42,14 20,15.79 20,18V20H4V18C4,15.79 7.58,14 12,14Z" />
  </symbol>  
  <symbol id="chart" viewBox="0 0 24 24">
	  <path d="M3,22V8H7V22H3M10,22V2H14V22H10M17,22V14H21V22H17Z" />
  </svg>
</svg>