<?xml version="1.0" encoding="utf-8"?>
<svg xmlns="http://www.w3.org/2000/svg" style="display:none;">
  <symbol id="menu" viewBox="0 0 512 512">
    <circle cx="256" cy="256" r="252"/>
    <circle fill="white" cx="130" cy="256" r="50"/>
    <circle fill="white" cx="256" cy="256" r="50"/>
    <circle fill="white" cx="382" cy="256" r="50"/>    
  </symbol>
  <symbol id="edit-circle" viewBox="0 0 512 512">
    <path d="M 256,4 C 116.644,4 4,116.644 4,256 4,395.356 116.644,508 256,508 395.356,508 508,395.356 508,256 508,116.644 395.356,4 256,4 m 78.12,127.764 c 3.528,0 7.056,1.26 10.08,4.032 l 32.004,32.004 c 5.796,5.544 5.796,14.364 0,19.656 l -25.2,25.2 -51.66,-51.66 25.2,-25.2 c 2.52,-2.772 6.048,-4.032 9.576,-4.032 m -49.644,43.848 51.912,51.912 -152.712,152.712 h -51.912 v -51.912 z"/>
  </symbol>
  <symbol id="tick-circle" viewBox="0 0 512 512">
    <path d="M 256,4 A 252,252 0 0 1 508,256 252,252 0 0 1 256,508 252,252 0 0 1 4,256 252,252 0 0 1 256,4 M 230.8,369.4 407.2,193 371.668,157.468 230.8,298.084 152.932,220.468 117.4,256 Z"/>
  </symbol>
  <symbol id="cross-circle" viewBox="0 0 512 512">
    <path d="M 256,4 C 395.356,4 508,116.644 508,256 508,395.356 395.356,508 256,508 116.644,508 4,395.356 4,256 4,116.644 116.644,4 256,4 M 346.468,130 256,220.468 165.532,130 130,165.532 220.468,256 130,346.468 165.532,382 256,291.532 346.468,382 382,346.468 291.532,256 382,165.532 Z"/>
  </symbol>
  <symbol id="logo" viewBox="0 0 512 141">
    <path d="m 508,39.301 c -7.967,28.735 -20.451,56.64 -23.625,86.479 7.445,16.138 -16.939,14.369 -7.744,-2.116 2.721,-17.605 9.029,-34.337 14.105,-51.344 -6.829,12.514 -32.046,35.417 -36.045,9.346 -1.016,-12.052 -7.328,-39.594 4.543,-42.020 3.099,14.241 -7.672,44.541 12.188,45.966 11.731,-8.250 21.373,-21.142 25.806,-34.835 1.266,-5.087 5.775,-26.630 10.767,-11.467 z m -68.885,28.32 c -2.551,15.223 -16.924,30.549 -31.577,37.254 -18.583,9.686 -37.923,-10.246 -27.526,-28.603 7.226,-20.152 23.489,-41.544 46.231,-43.789 24.370,2.025 2.211,26.331 -11.410,27.809 -17.000,2.596 -33.237,10.805 -27.586,31.007 12.536,18.413 36.763,-0.687 45.085,-14.498 2.592,-2.819 3.847,-6.693 6.784,-9.180 z m -8.632,-23.777 c -7.611,-16.977 -40.267,12.415 -32.560,16.580 11.508,-2.993 25.103,-6.780 32.560,-16.580 z m -74.358,63.462 c -17.612,13.523 -1.889,-21.981 -1.209,-30.175 2.539,-9.622 11.342,-43.513 -6.436,-23.463 -10.688,14.260 -19.302,29.926 -28.244,45.312 -11.958,10.325 -7.422,-7.506 -6.965,-14.320 1.802,-15.617 2.449,-31.596 4.996,-46.937 15.651,-9.577 2.381,22.163 3.813,29.707 -0.631,9.403 -6.984,35.988 2.581,15.609 10.023,-14.887 17.631,-32.689 32.466,-43.445 17.521,2.086 3.477,31.528 3.537,44.394 -1.462,7.782 -2.989,15.556 -4.542,23.323 z M 306.282,42.483 c -7.029,12.96 -16.595,-13.209 -24.865,4.285 -9.985,13.148 -24.272,25.889 -26.173,42.965 2.316,6.837 -7.475,29.325 -9.085,12.415 3.276,-21.622 6.886,-43.275 11.281,-64.679 12.105,-6.553 4.244,13.228 3.632,19.902 -1.542,7.819 -4.539,18.859 2.630,4.516 9.225,-11.542 22.476,-36.434 39.960,-26.003 1.632,1.704 3.167,4.085 2.611,6.587 z M 229.792,103.670 c -13.409,15.84 -12.619,-19.532 -8.832,-27.734 0.461,-7.766 8.968,-35.179 -0.971,-16.728 -13.591,16.875 -25.043,38.883 -45.471,47.947 -13.693,-10.624 1.349,-35.425 5.177,-49.802 4.437,-6.757 8.802,-26.184 18.897,-21.380 -12.782,17.695 -22.805,39.307 -22.053,61.345 17.805,-4.233 27.745,-26.471 39.431,-40.104 6.001,-4.667 13.579,-34.612 18.111,-17.744 -2.774,18.757 -8.466,37.587 -7.320,56.632 0.578,2.683 1.912,5.091 3.027,7.570 z M 160.162,74.893 c -6.308,19.853 -28.633,37.288 -50.056,31.007 -17.601,-12.604 -0.805,-36.812 7.003,-51.012 2.388,-6.621 19.921,-23.860 20.783,-12.861 -13.466,13.780 -27.348,30.844 -27.798,50.974 12.128,17.385 41.253,-2.271 42.784,-19.763 1.576,-11.255 -29.295,-23.890 -6.349,-26.815 3.530,4.550 16.539,17.680 13.628,28.471 z M 109.108,13.706 C 98.748,22.452 71.517,8.857 63.947,22.867 59.029,49.766 55.575,77.361 47.279,103.368 31.390,108.606 48.307,81.110 46.905,72.462 47.695,56.721 60.515,29.221 52.752,20.482 37.380,17.663 13.656,34.648 4,20.671 18.256,14.057 38.155,17.058 54.573,13.415 57.816,12.171 60.844,-2.919 65.031,9.163 71.056,17.160 105.332,-2.568 109.104,13.706 Z"/>
  </symbol>
  <symbol id="list" viewBox="0 0 512 512">
    <circle cx="256" cy="256" r="252"/>
    <path style="fill:#ffffff" d="M 382,382 V 331.599 H 230.799 V 382 Z m -201.600,0 V 331.599 H 130 V 382 M 382,281.200 V 230.799 H 230.799 v 50.400 z m -201.600,0 V 230.799 H 130 v 50.400 M 382,180.400 V 130 H 230.799 v 50.400 z m -201.600,0 V 130 H 130 v 50.400"/>
  </symbol>  
  <symbol id="trophy" viewBox="0 0 512 512">
    <circle cx="256" cy="256" r="252"/>
    <path style="fill:#ffffff" d="m 362.933,125.593 h -9.128 -19.561 c -11.736,0 -26.081,13.040 -26.081,26.081 H 203.837 c 0,-13.040 -14.344,-26.081 -26.081,-26.081 h -19.561 -9.128 -23.473 v 117.366 c 0,13.040 13.040,26.081 26.081,26.081 h 28.689 c 5.216,26.081 22.169,48.250 62.595,52.162 v 27.385 c -28.689,2.608 -39.122,16.952 -39.122,33.905 v 3.912 h 104.325 v -3.912 c 0,-16.952 -10.432,-31.297 -39.122,-33.905 v -27.385 c 40.426,-3.912 57.378,-26.081 62.595,-52.162 h 28.689 c 13.040,0 26.081,-13.040 26.081,-26.081 v -117.366 h -23.473 m -211.258,117.366 v -91.284 h 26.081 v 26.081 65.203 c -11.736,0 -22.169,0 -26.081,0 m 208.650,0 c -3.912,0 -14.344,0 -26.081,0 v -65.203 -26.081 h 26.081 z"/>
  </symbol>
  <symbol id="info" viewBox="0 0 512 512">
    <circle cx="256" cy="256" r="252"/>
    <path style="fill:#ffffff" d="m 230.8,382 h 50.400 V 230.799 H 230.8 Z m 0,-201.600 h 50.400 V 130 H 230.8"/>   
  </symbol>  
</svg>