<svg xmlns="http://www.w3.org/2000/svg" xmlns:xlink="http://www.w3.org/1999/xlink" viewBox="0 0 512 512">
  <defs>
    <radialGradient xlink:href="#a" id="b" cx="67.566" cy="53.222" fx="67.566" fy="53.222" r="67.701" gradientTransform="matrix(.41344 5.28438 -3.71096 .2903 377.577 -224.303)" gradientUnits="userSpaceOnUse"/>
    <linearGradient id="a">
      <stop offset="0" stop-color="#fff60a"/>
      <stop offset="1" stop-color="#ff9b00"/>
    </linearGradient>
  </defs>
  <path d="M504.063 256A248.063 248.063 0 0 1 256 504.063 248.063 248.063 0 0 1 7.937 256 248.063 248.063 0 0 1 256 7.937 248.063 248.063 0 0 1 504.063 256Z" fill="url(#b)"/>
  <path d="M260.37 8.157c2.66 1.753 6.185 3.172 8.062 3.383 51.758 11.277 96.243 45.51 129.55 85.47 16.503 20.163 30.322 42.523 41.305 66.242 6.782-2.387 12.258-12.427 4.778-17.339C414.486 87.714 365.24 36.306 303.821 12.662a248.063 248.063 0 0 0-43.45-4.505ZM131.656 51.17c-5.686.317-11.895.86-17.98 2.024a248.063 248.063 0 0 0-28.12 22.763c3.593-2.059 8.732-5.658 11.767-6.13 36.863-13.758 76.68-.598 112.008 11.733 68.973 27.462 130.14 72.206 182.735 124.246 8.724.159 15.899-12.24 6.844-17.25C335.065 133.373 265.909 78.32 182.109 58.255c-16.535-3.969-33.455-6.443-50.453-7.084ZM77.05 139.41a12.6 12.6 0 0 0-1.377.036c-10.423 5.502-12.67 18.867-19.507 27.707-28.102 52.169-43.858 114.583-33.142 173.4a248.063 248.063 0 0 0 38.501 69.423c1.273-3.773-4.46-9.526-6.745-12.4-30.858-49.98-28.933-113.55-11.051-167.7 10.635-31.521 26.42-60.973 43.124-89.635-3.297.39-6.58-.749-9.803-.831zm58.788 16.906c-7.63 2.115-5.255 13.859-8.506 19.75-19.267 77.697-24.358 160.41-5.792 238.736 6.108 23.635 15.31 48.404 31.818 66.761a248.063 248.063 0 0 0 43.458 15.027 22.894 22.894 0 0 0 2.014-1.29c-30.104-3.194-45.798-34.168-55.252-59.264-21.965-61.941-20.803-129.282-13.409-193.77 3.576-27.061 9.204-53.717 16.73-79.962-2.71-3.205-6.728-5.987-11.061-5.988zm361.871 45.298c-2.816 9.021-.763 20.188-6.91 28.408-23.85 48.919-70.792 80.907-116.056 108.239-44.756 25.7-93.303 44.24-142.743 58.49-2.218 5.469-.996 18.456 7.563 14.549 76.146-21.526 151.055-54.148 210.333-107.834 21.72-19.247 43.56-42.67 52.864-70.63a248.063 248.063 0 0 0-5.05-31.222zm-15.917 156.555c-10.507 15.12-20.133 31.75-34.784 43.56-55.826 47.033-131.388 63.987-202.91 57.73-.186 7.573 5.39 18.24 14.412 14.562 62.735.865 129.204-12.239 180.02-50.486a248.063 248.063 0 0 0 43.262-65.366z" fill="#4a85ff"/>
  <path d="M439.78 89.811c4.253 10.497 6.24 25.33 6.24 25.33 3.434 32.381-27.483 52.83-50.655 70.019-38.676 28.16-84.656 46.252-131.917 52.005-47.119-58.409-104.525-98.131-181.437-104.551-10.04-.305-34.303-.522-47.076 12.57-13.548 22.704-15.24 31.539-20.983 57.347 10.482-20.722 23.215-43.202 47.831-47.53 55.749-2.345 103.9 32.286 144.472 66.704 11.801 11.01 22.6 23.128 31.86 36.355-28.706 70.506-33.574 139.744-.502 210.259 8.034 13.4 18.136 26.668 40.173 32.96 29.8-.474 38.28-3.597 62.271-12.137-8.542-.336-15.798 1.278-24.521 1.396-25.42 1.416-52.772-7.568-57.736-32.4-22.509-57.837-5.242-132.776 13.778-190.107 9.658-3.205 18.445-6.42 30.895-9.65 65.045-20.098 105.032-35.867 144.539-89.342 14.623-18.583 16.786-38.62 15.954-44.837-5.669-15.053-10.87-20.76-23.186-34.39z" fill="#000309"/>
  <path d="M256.004 4C116.874 4 4 116.866 4 255.996S116.873 508 256.004 508C395.134 508 508 395.127 508 255.996 508 116.866 395.134 4 256.004 4Zm0 7.874c134.872 0 244.122 109.25 244.122 244.122 0 134.873-109.25 244.13-244.122 244.13-134.873 0-244.123-109.257-244.123-244.13 0-134.872 109.25-244.122 244.123-244.122Z" fill="#4a85ff"/>
</svg>